<?xml version="1.0" encoding="UTF-8"?>
<!DOCTYPE svg PUBLIC "-//W3C//DTD SVG 1.1//EN" "http://www.w3.org/Graphics/SVG/1.1/DTD/svg11.dtd">
<!-- Creator: CorelDRAW 2021 (64-Bit) -->
<svg xmlns="http://www.w3.org/2000/svg" xml:space="preserve" width="300px" height="300px" version="1.1" style="shape-rendering:geometricPrecision; text-rendering:geometricPrecision; image-rendering:optimizeQuality; fill-rule:evenodd; clip-rule:evenodd"
viewBox="0 0 300 300"
 xmlns:xlink="http://www.w3.org/1999/xlink"
 xmlns:xodm="http://www.corel.com/coreldraw/odm/2003">
 <defs>
  <style type="text/css">
   <![CDATA[
    .fil0 {fill:#242323}
   ]]>
  </style>
 </defs>
 <g id="Layer_x0020_1">
  <metadata id="CorelCorpID_0Corel-Layer"/>
  <path class="fil0" d="M56.25 247.5c9.54,-40.94 8.39,-54.61 45,-82.5 14.72,-11.21 53.86,-48.98 63.75,-63.75l34.64 32.86c-10.14,14.77 -78.02,82.01 -97.7,95.33 -14.47,9.8 -29.78,9.64 -45.69,18.06zm165 -138.75l-30.79 -32.97c20.44,-13.94 31.49,-39.83 57.04,-45.78 19.31,10.22 31.59,21.37 12.4,42.29 -10.99,12 -26.22,28.14 -38.65,36.46zm-52.5 -56.25l-14.42 -11.89 -23.95 22.28 12.76 15.28c-17.97,26.46 -58.59,56.33 -82.28,80.19 -11.97,12.05 -24.92,29.5 -29.24,49.51 -4,18.53 0.75,17.92 -10,31.25 -10.64,13.2 -13.08,16.54 -21.62,19.63 3.45,12.91 26.36,33.79 37.5,41.25 18.88,-16.41 19.35,-24.93 48.76,-29.99 43.98,-7.56 121.69,-92.64 134.99,-112.51 10.89,7.29 5.03,7.59 18.75,11.25l19.48 -21.8 -12.62 -15.12c22.29,-32.7 53.14,-34.07 53.14,-83.08 0,-25.84 -23.6,-48.75 -60,-48.75 -28.92,0 -51.06,38.98 -71.25,52.5z"/>
 </g>
</svg>
