<?xml version="1.0" encoding="UTF-8"?>
<!DOCTYPE svg PUBLIC "-//W3C//DTD SVG 1.1//EN" "http://www.w3.org/Graphics/SVG/1.1/DTD/svg11.dtd">
<!-- Creator: CorelDRAW 2021 (64-Bit) -->
<svg xmlns="http://www.w3.org/2000/svg" xml:space="preserve" width="600px" height="128px" version="1.1" style="shape-rendering:geometricPrecision; text-rendering:geometricPrecision; image-rendering:optimizeQuality; fill-rule:evenodd; clip-rule:evenodd"
viewBox="0 0 600 128"
 xmlns:xlink="http://www.w3.org/1999/xlink"
 xmlns:xodm="http://www.corel.com/coreldraw/odm/2003">
 <defs>
  <style type="text/css">
   <![CDATA[
    .fil0 {fill:none}
    .fil2 {fill:#B52E31}
    .fil4 {fill:#D8A1A2}
    .fil1 {fill:#E23237}
    .fil3 {fill:#FEFEFE}
    .fil5 {fill:white}
   ]]>
  </style>
 </defs>
 <g id="Layer_x0020_1">
  <metadata id="CorelCorpID_0Corel-Layer"/>
  <rect class="fil0" width="600" height="128"/>
  <g id="_1927323125792">
   <rect class="fil1" x="479.83" y="21.99" width="120.17" height="84.02" rx="15.41" ry="10.77"/>
   <path class="fil2" d="M58.38 16.48l37.85 80.19 -12.7 0.15 -7.66 -18.43 -18.09 0.04c1.35,6.96 1.36,41.4 -0.05,48.29 5.25,-1.27 20.6,-10.47 26,-13.63 5.08,-2.98 20.8,-12.27 25.09,-13.52l9.79 -77.83 -59.04 -20.46 -0.33 0 -0.86 15.2z"/>
   <path class="fil1" d="M0 22.03l0 3.15c1.92,5.14 3.51,27.79 4.45,35.28 5.41,42.83 -0.9,35.35 15.3,45.02 10.73,6.4 29.85,15.79 37.98,21.24 1.41,-6.89 1.4,-41.33 0.05,-48.29l-15.23 -0.05 -6.9 18.45 -13.35 0.11 36.08 -80.46 0.86 -15.2 -1.96 0 -57.28 20.75z"/>
   <path class="fil3" d="M58.13 44.61l0.71 -1.99c3.87,7.27 9.49,17.71 11.69,24.76l-1.59 0.31 -20.36 0.01c0.37,-3.67 7.39,-20.6 9.55,-23.09zm-0.35 33.82l18.09 -0.04 7.66 18.43 12.7 -0.15 -37.85 -80.19 -36.08 80.46 13.35 -0.11 6.9 -18.45 15.23 0.05z"/>
   <path class="fil2" d="M141.11 94.44c3.91,-1.67 1.89,1.74 2.61,-4.68l-0.18 -41.09 19.06 24.79c15.38,20.07 11.68,20.63 23.21,21.15l0.13 -57.34c-10.14,0.24 -6.82,-0.77 -7.4,4.8 -0.52,5.06 1.06,30.98 -0.18,40.59l-26.08 -34.34c-9.31,-12.04 -4.97,-10.73 -15.88,-11.1l0.09 44.85c-0.11,12.72 -1.71,12.37 4.62,12.37z"/>
   <path class="fil2" d="M426.57 94.29c3.2,-7.32 0.35,-39.55 1.05,-50.72 10.72,0.1 19.98,-2.45 24.8,5.11 1,6.83 -1.02,9.61 -5.32,11.9 -7.79,4.15 -9.91,1.24 -10.66,5.33 -0.73,3.96 6.59,12.6 10.24,17.56 6.24,8.46 3.31,10.54 16.95,11.12l-18.35 -26.52c4.16,-3.27 8.63,-3.06 12.67,-8.44 3.49,-4.64 3.66,-13.28 0.06,-17.64 -6.76,-8.18 -27.19,-4.23 -38.17,-4.77l-0.07 57.36 6.8 -0.29z"/>
   <path class="fil2" d="M255.29 37.54c-2.13,5.17 -1.53,33.42 -0.4,40.54 2,12.54 10.03,17.13 24.1,16.87 13.01,-0.23 21.44,-5.79 22.78,-18.25 0.65,-6.03 0.2,-14.22 0.2,-20.48 0,-21.34 1.56,-18.67 -7.51,-18.97 0.46,10.99 0.52,24.11 0.15,35.11 -0.34,10.49 -5.57,16.71 -16.71,16.61 -11.69,-0.11 -15.84,-6.15 -16.05,-17.62 -0.2,-11.08 -0.22,-23.07 0.14,-34.1l-6.7 0.29z"/>
   <path class="fil2" d="M363.58 94.61c0.73,-4.25 18.34,-47 20.13,-48.92l10.19 24.9 -14.28 0.21 -1.74 5.82 18.78 0.06 6.62 17.83 8.8 -0.04 -28.36 -63.71c-3.32,4.82 -26.3,56.96 -27.99,63.51l7.85 0.34z"/>
   <path class="fil2" d="M242.75 68.62l-7.26 0.27c0.28,3.39 0.25,6.42 0.28,9.96 0.03,3.94 0.61,5.91 -1.13,8.89 -20.1,4.35 -32.12,-5.88 -30.42,-25.75 1.73,-20.19 21.1,-20.7 38.48,-16.46 0.01,-6.09 0.92,-6.87 -7.58,-7.99 -20.22,-2.67 -38.77,2.57 -38.39,28.39 0.53,35.42 37.97,30.77 45.94,25.84l0.08 -23.15z"/>
   <path class="fil2" d="M314.95 94.61l29.8 -0.08c5.37,0.04 5.74,0.05 7.72,-1.69l0.05 -3.23c-0.25,-0.17 -0.61,-0.32 -0.83,-0.39l-29.22 -1.08 0.15 -46.07c-0.55,-4.76 2.35,-4.47 -7.53,-4.85l-0.14 57.39z"/>
   <path class="fil2" d="M58.13 44.61l0.23 22.68 12.17 0.09c-2.2,-7.05 -7.82,-17.49 -11.69,-24.76l-0.71 1.99z"/>
   <path class="fil1" d="M70.53 67.38l-12.17 -0.09 -0.23 -22.68c-2.16,2.49 -9.18,19.42 -9.55,23.09l20.36 -0.01 1.59 -0.31z"/>
   <path class="fil4" d="M234.64 87.74c1.74,-2.98 1.16,-4.95 1.13,-8.89 -0.03,-3.54 0,-6.57 -0.28,-9.96l7.26 -0.27 -7.8 -0.08 -0.31 19.2z"/>
   <path class="fil5" d="M542.55 64.16c0,5.25 -0.69,9.73 -2.06,13.47 -1.37,3.72 -3.33,6.75 -5.89,9.12 -2.56,2.35 -5.69,4.09 -9.35,5.19 -3.66,1.1 -8.03,1.66 -13.1,1.66l-13.65 0c-0.98,0 -1.79,-0.29 -2.46,-0.86 -0.66,-0.58 -0.99,-1.51 -0.99,-2.81l0 -49.84c0,-1.3 0.33,-2.24 0.99,-2.81 0.67,-0.57 1.48,-0.86 2.46,-0.86l14.66 0c5.09,0 9.42,0.6 12.96,1.8 3.56,1.19 6.55,2.95 8.98,5.29 2.42,2.35 4.28,5.24 5.54,8.68 1.27,3.46 1.91,7.44 1.91,11.97zm43.45 12.28c0,3.01 -0.56,5.64 -1.68,7.91 -1.13,2.26 -2.63,4.15 -4.55,5.67 -1.93,1.51 -4.16,2.66 -6.73,3.42 -2.56,0.77 -5.3,1.15 -8.23,1.15 -1.97,0 -3.8,-0.17 -5.5,-0.5 -1.69,-0.33 -3.18,-0.72 -4.48,-1.19 -1.29,-0.45 -2.38,-0.93 -3.25,-1.45 -0.88,-0.51 -1.5,-0.96 -1.89,-1.34 -0.38,-0.39 -0.65,-0.95 -0.81,-1.67 -0.17,-0.73 -0.25,-1.75 -0.25,-3.11 0,-0.92 0.04,-1.67 0.1,-2.29 0.06,-0.62 0.15,-1.11 0.28,-1.51 0.14,-0.37 0.32,-0.64 0.53,-0.81 0.23,-0.17 0.48,-0.24 0.78,-0.24 0.41,0 1,0.24 1.75,0.74 0.76,0.48 1.72,1.02 2.9,1.61 1.17,0.59 2.59,1.13 4.23,1.61 1.63,0.5 3.53,0.74 5.69,0.74 1.42,0 2.68,-0.16 3.8,-0.5 1.13,-0.34 2.08,-0.81 2.86,-1.43 0.79,-0.62 1.38,-1.37 1.8,-2.27 0.4,-0.91 0.61,-1.92 0.61,-3.04 0,-1.29 -0.34,-2.41 -1.05,-3.33 -0.71,-0.93 -1.63,-1.75 -2.77,-2.47 -1.14,-0.72 -2.43,-1.4 -3.88,-2.04 -1.43,-0.63 -2.92,-1.29 -4.46,-2 -1.54,-0.71 -3.03,-1.51 -4.47,-2.41 -1.44,-0.89 -2.74,-1.96 -3.87,-3.21 -1.15,-1.25 -2.06,-2.73 -2.77,-4.45 -0.71,-1.71 -1.06,-3.76 -1.06,-6.14 0,-2.73 0.51,-5.14 1.52,-7.22 1.01,-2.07 2.39,-3.79 4.1,-5.16 1.74,-1.37 3.76,-2.39 6.09,-3.07 2.34,-0.68 4.83,-1.01 7.45,-1.01 1.35,0 2.7,0.1 4.06,0.31 1.36,0.2 2.62,0.49 3.8,0.83 1.17,0.36 2.22,0.76 3.14,1.19 0.9,0.46 1.5,0.82 1.8,1.12 0.29,0.29 0.49,0.54 0.59,0.74 0.11,0.21 0.2,0.48 0.27,0.83 0.08,0.33 0.13,0.75 0.15,1.28 0.03,0.51 0.05,1.14 0.05,1.91 0,0.85 -0.02,1.57 -0.06,2.16 -0.05,0.59 -0.12,1.07 -0.23,1.46 -0.1,0.38 -0.25,0.67 -0.43,0.83 -0.2,0.18 -0.46,0.27 -0.79,0.27 -0.32,0 -0.83,-0.21 -1.54,-0.61 -0.7,-0.41 -1.58,-0.86 -2.6,-1.36 -1.04,-0.49 -2.24,-0.92 -3.59,-1.31 -1.36,-0.41 -2.84,-0.61 -4.47,-0.61 -1.26,0 -2.36,0.15 -3.31,0.47 -0.94,0.3 -1.72,0.74 -2.36,1.28 -0.63,0.54 -1.11,1.19 -1.41,1.96 -0.32,0.77 -0.47,1.58 -0.47,2.43 0,1.27 0.35,2.37 1.04,3.29 0.69,0.93 1.63,1.76 2.79,2.48 1.16,0.71 2.49,1.39 3.97,2.03 1.46,0.63 2.97,1.31 4.5,2 1.54,0.71 3.05,1.51 4.51,2.41 1.48,0.91 2.79,1.98 3.95,3.23 1.15,1.25 2.08,2.71 2.79,4.42 0.71,1.69 1.06,3.68 1.06,5.97zm-55.49 -11.87c0,-2.71 -0.31,-5.22 -0.95,-7.55 -0.63,-2.33 -1.64,-4.33 -3.04,-6.03 -1.41,-1.71 -3.2,-3.05 -5.39,-4 -2.2,-0.95 -5.06,-1.43 -8.64,-1.43l-5.86 0 0 38.81 6.05 0c3.18,0 5.86,-0.41 8.03,-1.24 2.17,-0.81 4,-2.06 5.46,-3.72 1.45,-1.66 2.53,-3.73 3.26,-6.2 0.72,-2.47 1.08,-5.35 1.08,-8.64z"/>
  </g>
 </g>
</svg>
