<?xml version="1.0" encoding="UTF-8"?>
<!DOCTYPE svg PUBLIC "-//W3C//DTD SVG 1.1//EN" "http://www.w3.org/Graphics/SVG/1.1/DTD/svg11.dtd">
<!-- Creator: CorelDRAW 2021 (64-Bit) -->
<svg xmlns="http://www.w3.org/2000/svg" xml:space="preserve" width="128px" height="128px" version="1.1" style="shape-rendering:geometricPrecision; text-rendering:geometricPrecision; image-rendering:optimizeQuality; fill-rule:evenodd; clip-rule:evenodd"
viewBox="0 0 128 128"
 xmlns:xlink="http://www.w3.org/1999/xlink"
 xmlns:xodm="http://www.corel.com/coreldraw/odm/2003">
 <defs>
  <style type="text/css">
   <![CDATA[
    .fil0 {fill:none}
    .fil1 {fill:#B52E31}
    .fil2 {fill:#E23237}
    .fil3 {fill:#FEFEFE}
   ]]>
  </style>
 </defs>
 <g id="Layer_x0020_1">
  <metadata id="CorelCorpID_0Corel-Layer"/>
  <rect class="fil0" width="128" height="128"/>
  <g id="_1927021384144">
   <path class="fil1" d="M63.07 16.48l37.86 80.19 -12.71 0.15 -7.65 -18.42 -18.1 0.03c1.36,6.96 1.36,41.4 -0.05,48.29 5.26,-1.27 20.6,-10.47 26.01,-13.63 5.08,-2.98 20.8,-12.27 25.09,-13.52l9.79 -77.83 -59.04 -20.46 -0.34 0 -0.86 15.2z"/>
   <path class="fil2" d="M4.69 22.03l0 3.15c1.93,5.14 3.51,27.79 4.46,35.28 5.41,42.84 -0.91,35.35 15.3,45.02 10.72,6.4 29.84,15.79 37.97,21.24 1.41,-6.89 1.41,-41.33 0.05,-48.29l-15.23 -0.05 -6.9 18.45 -13.34 0.11 36.07 -80.46 0.86 -15.2 -1.95 0 -57.29 20.75z"/>
   <path class="fil3" d="M62.83 44.61l0.7 -1.99c3.87,7.27 9.5,17.71 11.69,24.76l-1.59 0.31 -20.35 0.01c0.37,-3.67 7.39,-20.6 9.55,-23.09zm-0.36 33.82l18.1 -0.03 7.65 18.42 12.71 -0.15 -37.86 -80.19 -36.07 80.46 13.34 -0.11 6.9 -18.45 15.23 0.05z"/>
   <path class="fil1" d="M62.83 44.61l0.23 22.68 12.16 0.09c-2.19,-7.05 -7.82,-17.49 -11.69,-24.76l-0.7 1.99z"/>
   <path class="fil2" d="M75.22 67.38l-12.16 -0.09 -0.23 -22.68c-2.16,2.49 -9.18,19.42 -9.55,23.09l20.35 -0.01 1.59 -0.31z"/>
  </g>
 </g>
</svg>
